<svg width="108" height="110" viewBox="0 0 108 110" fill="none" xmlns="http://www.w3.org/2000/svg">
<path d="M105.954 38.1071L107.646 35.9151L105.615 34.3975L103.923 36.5895C103.246 36.2523 102.4 36.0837 101.723 36.0837C100.031 36.0837 98.5077 36.7582 97.4923 38.1071L96.3077 39.6246L92.7539 36.7582L85.8154 45.3575V3.37231H66.5231V0H19.477V3.37231H0.353882V109.6H85.8154V69.8068L105.954 44.8517C106.8 43.6714 107.308 42.3225 107.139 40.8049C106.969 39.7932 106.462 38.9502 105.954 38.1071ZM83.277 5.90154V48.3926L79.3847 53.2825L81.4154 54.8L93.0923 40.2991L94.7847 41.648L77.3539 62.8935V13.9951H66.6923V5.90154H83.277ZM62.2923 84.9822C61.9539 85.9938 62.1231 86.8369 62.6308 87.68L60.0923 90.8837C59.5847 91.3895 59.7539 92.2326 60.2616 92.5698C60.4308 92.7385 61.277 93.0757 61.9539 92.4012L64.4923 89.1975C64.8308 89.3662 65.1693 89.3661 65.677 89.3661C66.1847 89.3661 66.8616 89.1975 67.3693 89.0289C70.2462 87.5114 72.6154 85.488 74.8154 83.1274V99.3145H11.3539V16.5243H19.477V20.2338H66.5231V16.5243H74.6462V65.9286L67.2 75.2025C65 78.2375 63.3077 81.4412 62.2923 84.9822ZM22.0154 2.52923H64.1539V17.8732H22.0154V2.52923ZM83.277 107.071H2.89234V5.90154H19.477V14.1637H8.81542V102.012H77.3539V80.0923L83.277 72.8418V107.071ZM103.923 43.3342L73.8 80.5981C71.7693 83.1274 69.0616 85.3194 66.1847 86.8369C65.8462 87.0055 65.3385 87.0055 65 86.6683C64.6616 86.3311 64.4923 85.9938 64.6616 85.6566C65.677 82.4529 67.2 79.5865 69.2308 76.8886L99.3539 39.6246C101.046 37.7698 102.908 38.7815 103.415 39.1188C104.092 39.6246 105.108 41.3108 103.923 43.3342Z" fill="#2E50A8"/>
<path d="M89.7206 54.2176L91.696 55.8059L93.2902 53.8377L91.3148 52.2493L89.7206 54.2176Z" fill="#2E50A8"/>
<path d="M21.5077 41.9853L18.2923 38.7816L16.6 40.4678L21.5077 45.5262L32.6769 34.3976L30.8154 32.5428L21.5077 41.9853Z" fill="#2E50A8"/>
<path d="M68.7231 38.9501H35.3846V41.4793H68.7231V38.9501Z" fill="#2E50A8"/>
<path d="M21.5077 63.0622L18.2923 59.8585L16.6 61.5447L21.5077 66.6031L32.6769 55.4745L30.8154 53.6198L21.5077 63.0622Z" fill="#2E50A8"/>
<path d="M68.7231 60.0271H35.3846V62.5563H68.7231V60.0271Z" fill="#2E50A8"/>
<path d="M21.5077 84.1391L18.2923 80.9354L16.6 82.6216L21.5077 87.68L32.6769 76.5514L30.8154 74.6967L21.5077 84.1391Z" fill="#2E50A8"/>
<path d="M56.3693 81.104H35.3846V83.6332H56.3693V81.104Z" fill="#2E50A8"/>
<path d="M47.4 8.93665H44.8616V11.4659H47.4V8.93665Z" fill="#2E50A8"/>
<path d="M54 8.93665H51.4615V11.4659H54V8.93665Z" fill="#2E50A8"/>
<path d="M40.9692 8.93665H38.4308V11.4659H40.9692V8.93665Z" fill="#2E50A8"/>
<path d="M34.3693 8.93665H31.8308V11.4659H34.3693V8.93665Z" fill="#2E50A8"/>
</svg>
